<?xml version="1.0" ?><svg height="16" id="svg4050" version="1.1" viewBox="0 0 32 32.000001" width="32" xmlns="http://www.w3.org/2000/svg" xmlns:cc="http://creativecommons.org/ns#" xmlns:dc="http://purl.org/dc/elements/1.1/" xmlns:inkscape="http://www.inkscape.org/namespaces/inkscape" xmlns:rdf="http://www.w3.org/1999/02/22-rdf-syntax-ns#" xmlns:sodipodi="http://sodipodi.sourceforge.net/DTD/sodipodi-0.dtd" xmlns:svg="http://www.w3.org/2000/svg"><defs id="defs4052"/><g id="layer1" transform="translate(0,-1020.3622)"><path d="m 16.339286,1028.8622 9.66071,0 c 0.83101,0 1.500018,0.669 1.500018,1.5 l 0,14 c 0,0.831 -0.669008,1.5 -1.500018,1.5 l -9.499996,0 -0.680744,-2.8931" id="path4307" style="opacity:1;fill:none;stroke:#000000;stroke-width:1;stroke-linecap:round;stroke-linejoin:round;stroke-miterlimit:4.0999999;stroke-dasharray:none"/><path d="m 19.5,1042.8622 -13.4999967,0 c -0.8310096,0 -1.5000174,-0.669 -1.5000174,-1.5 l 0,-14 c 0,-0.831 0.6690078,-1.5 1.5000174,-1.5 l 9.4999967,0 z" id="rect4302" style="opacity:1;fill:none;stroke:#000000;stroke-width:1;stroke-linecap:round;stroke-linejoin:round;stroke-miterlimit:4.0999999;stroke-dasharray:none"/><path d="m 16.505051,1045.8572 2.989899,-2.9899" id="path4309" style="fill:none;fill-rule:evenodd;stroke:#000000;stroke-width:1px;stroke-linecap:round;stroke-linejoin:round;stroke-opacity:1"/><path d="m 9.9994799,1031.3618 2.5005201,0 c -1.5e-5,1.1318 -0.760164,2.1224 -1.853338,2.4153 -1.093179,0.2929 -2.2468122,-0.1849 -2.8126964,-1.165 -0.5658815,-0.9801 -0.4028951,-2.2182 0.3973789,-3.0184 0.8002711,-0.8003 2.0382745,-0.9633 3.0183955,-0.3974" id="path4331" style="opacity:1;fill:none;stroke:#000000;stroke-width:1;stroke-linecap:round;stroke-linejoin:round;stroke-miterlimit:4.0999999;stroke-dasharray:none"/><path d="m 17.492879,1032.8623 7,0" id="path4333" style="fill:none;fill-rule:evenodd;stroke:#000000;stroke-width:1px;stroke-linecap:round;stroke-linejoin:round;stroke-opacity:1"/><path d="m 23.987701,1039.8556 a 8.5,8.5 0 0 1 -4.470661,-6.9555" id="path4335" style="fill:none;stroke:#000000;stroke-width:1;stroke-linecap:round;stroke-linejoin:round"/><path d="m 22.483263,1032.8953 a 8.5,8.5 0 0 1 -3.739827,6.5202" id="circle4337" style="fill:none;stroke:#000000;stroke-width:1;stroke-linecap:round;stroke-linejoin:round"/><path d="m 21.00005,1030.8693 0,2" id="path4339" style="fill:none;fill-rule:evenodd;stroke:#000000;stroke-width:1px;stroke-linecap:round;stroke-linejoin:round;stroke-opacity:1"/></g></svg>